<svg width="51" height="21" viewBox="0 0 51 21" fill="none" xmlns="http://www.w3.org/2000/svg">
<path d="M11.9834 14.694L9.47744 20H4.60544L0.335437 8.506H6.17344L7.83944 14.134L10.3174 8.73H13.6634L16.0994 14.134L17.7794 8.506H23.6314L19.3754 20H14.5174L11.9834 14.694ZM28.8351 20.336C27.6871 20.336 26.7071 20.0513 25.8951 19.482C25.0831 18.9033 24.4577 18.152 24.0191 17.228C23.5897 16.304 23.3751 15.3147 23.3751 14.26C23.3751 13.2053 23.5897 12.216 24.0191 11.292C24.4577 10.368 25.0831 9.61667 25.8951 9.038C26.7071 8.45933 27.6871 8.17 28.8351 8.17C29.4977 8.17 30.0857 8.26333 30.5991 8.45C31.1217 8.62733 31.5464 8.84667 31.8731 9.108C32.2091 9.36 32.4284 9.60733 32.5311 9.85V0.735999H38.0191V20H32.5731V18.39C32.3304 18.7633 32.0084 19.0993 31.6071 19.398C31.2151 19.6873 30.7811 19.916 30.3051 20.084C29.8291 20.252 29.3391 20.336 28.8351 20.336ZM30.6551 16.08C31.0284 16.08 31.3551 15.996 31.6351 15.828C31.9151 15.66 32.1344 15.436 32.2931 15.156C32.4517 14.876 32.5311 14.5773 32.5311 14.26C32.5311 13.9427 32.4517 13.644 32.2931 13.364C32.1344 13.084 31.9151 12.86 31.6351 12.692C31.3551 12.5147 31.0284 12.426 30.6551 12.426C30.2817 12.426 29.9504 12.5147 29.6611 12.692C29.3811 12.86 29.1617 13.084 29.0031 13.364C28.8444 13.644 28.7651 13.9427 28.7651 14.26C28.7651 14.5773 28.8444 14.876 29.0031 15.156C29.1617 15.436 29.3811 15.66 29.6611 15.828C29.9504 15.996 30.2817 16.08 30.6551 16.08ZM39.5599 8.506H41.1559V5.622C41.1559 4.53933 41.4173 3.61067 41.9399 2.836C42.4719 2.052 43.1579 1.45 43.9979 1.03C44.8379 0.609999 45.7199 0.399999 46.6439 0.399999C47.7919 0.399999 48.6599 0.553999 49.2479 0.861999C49.8453 1.16067 50.2279 1.394 50.3959 1.562L48.3239 5.552C48.2773 5.47733 48.1793 5.37467 48.0299 5.244C47.8806 5.104 47.6986 5.034 47.4839 5.034C47.3533 5.034 47.2226 5.06667 47.0919 5.132C46.9706 5.19733 46.8679 5.30467 46.7839 5.454C46.6999 5.60333 46.6579 5.80867 46.6579 6.07V8.506H49.2199V12.986H46.6579V20H41.1559V12.986H39.5599V8.506Z" fill="white"/>
</svg>
